<svg
    xmlns="http://www.w3.org/2000/svg"
    viewBox="0 0 64 64"
    width="100"
    height="100"
    fill="gold"
>
    <path d="M32 4a2 2 0 0 0-2 2v4.2c-3.5.5-6.7 2.3-9.1 5.4l-3-3a2 2 0 0 0-2.8 0l-4 4a2 2 0 0 0 0 2.8l3 3c-1.7 2.6-2.9 5.6-3.4 8.9H2a2 2 0 0 0-2 2v6a2 2 1 0  0 2 2h4.6c.5 3.3 1.7 6.3 3.4 8.9l-3 3a2 2 0 0 0 0 2.8l4 4a2 2 0 0 0 2.8 0l3-3c2.4 3.1 5.6 4.9 9.1 5.4V62a2 2 0 0 0 2 2h6a2 2 0 0 0 2-2v-4.6c3.5-.5 6.7-2.3 9.1-5.4l3 3a2 2 0 0 0 2.8 0l4-4a2 2 0 0 0 0-2.8l-3-3c1.7-2.6 2.9-5.6 3.4-8.9h4.6a2 2 0 0 0 2-2v-6a2 2 0 0 0-2-2h-4.6c-.5-3.3-1.7-6.3-3.4-8.9l3-3a2 2 0 0 0 0-2.8l-4-4a2 2 0 0 0-2.8 0l-3 3c-2.4-3.1-5.6-4.9-9.1-5.4V6a2 2 0 0 0-2-2h-6z" />
</svg>
